<svg xmlns="http://www.w3.org/2000/svg" viewBox="0 0 640 72" fill="none" role="img" aria-labelledby="title">
  <title id="title">Web Giants</title>
  <g transform="translate(0 4)">
    <path fill="#ECEAE4" d="M6 48V14h6.8l4.9 18.6L22.6 14H29.4v34h-6.2V27.8L19.4 46.2h-4.8L10.8 27.8V48H6Z"/>
    <path fill="#ECEAE4" fill-rule="evenodd" d="M48.2 31.2c0-7.6-5.4-12.8-12.6-12.8-7.4 0-12.8 5.6-12.8 13s5.4 13 13 13c3.8 0 7-1.3 9.2-3.6l.2-.2-3.6-3.5-.2.2c-1.5 1.5-3.5 2.3-5.8 2.3-4.2 0-7-3.2-7.4-7.4H52.4v-1Zm-12.4-7.4c3.6 0 6 2.6 6.4 6.2H29.6c.5-3.6 2.9-6.2 6.2-6.2Z"/>
    <rect x="40" y="29.4" width="12.5" height="3.6" rx="0.4" fill="#C9F24B"/>
  </g>
  <text x="78" y="46" font-family="Archivo, 'Helvetica Neue', Helvetica, Arial, sans-serif" font-size="30" font-weight="800" letter-spacing="0.16em">
    <tspan fill="#ECEAE4">WEB GIANTS</tspan><tspan fill="#C9F24B">.</tspan>
  </text>
</svg>
